<?xml version="1.0" encoding="utf-8"?>
<!-- Generator: Adobe Illustrator 16.0.0, SVG Export Plug-In . SVG Version: 6.00 Build 0)  -->
<!DOCTYPE svg PUBLIC "-//W3C//DTD SVG 1.1//EN" "http://www.w3.org/Graphics/SVG/1.1/DTD/svg11.dtd">
<svg version="1.1" xmlns="http://www.w3.org/2000/svg" xmlns:xlink="http://www.w3.org/1999/xlink" x="0px" y="0px" width="394.2px"
	 height="435.5px" viewBox="0 0 394.2 435.5" style="enable-background:new 0 0 394.2 435.5;" xml:space="preserve">
<g id="레이어_2" style="display:none;">
	<rect x="0" y="0" style="display:inline;fill:#1B1B1B;" width="394.2" height="435.5"/>
</g>
<g id="레이어_1">
	<g>
		<path style="fill:#F5BC1A;stroke:#F5BC1A;stroke-width:5;stroke-miterlimit:10;" d="M216.7,52.8H94c-4,0-7.5,3.5-7.5,7.5
			c0,4,3.5,7.5,7.5,7.5h122.7c4,0,7.5-3.5,7.5-7.5C224.2,56.3,220.7,52.8,216.7,52.8z"/>
	</g>
	<g>
		<path style="fill:#F5BC1A;stroke:#F5BC1A;stroke-width:3;stroke-miterlimit:10;" d="M156.1,372.3L156.1,372.3c-2.5,0-5-1-7-3
			c-2-2-3-4.5-3-7c0-5.5,4.5-9.9,9.9-9.9l0,0c5.5,0,9.9,4.5,9.9,9.9S161.6,372.3,156.1,372.3z M155.6,337.5
			c-13.9,0-24.8,11.4-24.8,24.8c0,6.5,2.5,12.9,7.5,17.4c4.5,4.5,10.9,7,17.4,7l0,0c13.9,0,24.8-11.4,24.8-24.8
			C180.4,348.4,169.5,337.5,155.6,337.5z"/>
	</g>
	<path style="fill:#F5BC1A;stroke:#F5BC1A;stroke-width:5;stroke-miterlimit:10;" d="M306.7,165c-3.1-0.3-6.3-0.5-9.5-0.5
		c-1.8,0-3.6,0.1-5.4,0.2c-48.3,2.8-86.6,42.8-86.6,91.8c0,49,38.3,89.1,86.6,91.8c1.8,0.1,3.6,0.2,5.4,0.2c3.2,0,6.4-0.2,9.5-0.5
		c46.3-4.8,82.5-43.9,82.5-91.5C389.1,208.9,353,169.8,306.7,165z M306.7,335.6c-3.1,0.4-6.3,0.6-9.5,0.6c-1.8,0-3.6-0.1-5.4-0.2
		c-41.5-2.8-74.4-37.3-74.4-79.5c0-42.2,32.8-76.8,74.4-79.5c1.8-0.1,3.6-0.2,5.4-0.2c3.2,0,6.4,0.2,9.5,0.6
		c39.5,4.7,70.2,38.3,70.2,79.1C376.9,297.3,346.2,330.9,306.7,335.6z"/>
	<rect x="291" y="244.2" style="fill:#F5BC1A;stroke:#F5BC1A;stroke-width:3;stroke-miterlimit:10;" width="12.3" height="55.2"/>
	<circle style="fill:#F5BC1A;stroke:#F5BC1A;stroke-width:3;stroke-miterlimit:10;" cx="297.1" cy="219.7" r="12.3"/>
	<path style="fill:#F5BC1A;stroke:#F5BC1A;stroke-width:5;stroke-miterlimit:10;" d="M291.8,382.2c0,18.4-14.9,32.8-33.3,32.8H53.2
		c-18.4,0-33.3-14.9-33.3-32.8v-329c0-18.4,14.9-32.8,33.3-32.8h205.2c18.4,0,33.3,14.9,33.3,32.8v81.2h14.9V53.3
		c0-26.3-21.4-47.7-48.2-47.7H53.2C26.9,5.6,5,26.9,5,53.3v329c0,26.3,21.4,47.7,48.2,47.7h205.2c26.3,0,48.2-21.4,48.2-47.7v-4.8
		h-14.9V382.2z"/>
</g>
<g id="레이어_3" style="display:none;">
	<g style="display:inline;">
		<path style="fill:#F5BC1A;stroke:#F5BC1A;stroke-width:5;stroke-miterlimit:10;" d="M216.7,52.3H94c-4,0-7.5,3.5-7.5,7.5
			c0,4,3.5,7.5,7.5,7.5h122.7c4,0,7.5-3.5,7.5-7.5C224.2,55.8,220.7,52.3,216.7,52.3z"/>
	</g>
	<g style="display:inline;">
		<path style="fill:#F5BC1A;stroke:#F5BC1A;stroke-width:3;stroke-miterlimit:10;" d="M156.1,371.9L156.1,371.9c-2.5,0-5-1-7-3
			c-2-2-3-4.5-3-7c0-5.5,4.5-9.9,9.9-9.9l0,0c5.5,0,9.9,4.5,9.9,9.9S161.6,371.9,156.1,371.9z M155.6,337.1
			c-13.9,0-24.8,11.4-24.8,24.8c0,6.5,2.5,12.9,7.5,17.4c4.5,4.5,10.9,7,17.4,7l0,0c13.9,0,24.8-11.4,24.8-24.8
			C180.5,348,169.5,337.1,155.6,337.1z"/>
	</g>
	<path style="display:inline;fill:#F5BC1A;stroke:#F5BC1A;stroke-width:5;stroke-miterlimit:10;" d="M306.7,164.5
		c-3.1-0.3-6.3-0.5-9.5-0.5c-1.8,0-3.6,0.1-5.4,0.2c-48.3,2.8-86.6,42.8-86.6,91.8c0,49,38.3,89.1,86.6,91.8
		c1.8,0.1,3.6,0.2,5.4,0.2c3.2,0,6.4-0.2,9.5-0.5c46.3-4.8,82.5-43.9,82.5-91.5C389.1,208.5,353,169.3,306.7,164.5z M306.7,335.2
		c-3.1,0.4-6.3,0.6-9.5,0.6c-1.8,0-3.6-0.1-5.4-0.2c-41.5-2.8-74.4-37.3-74.4-79.5c0-42.2,32.8-76.8,74.4-79.5
		c1.8-0.1,3.6-0.2,5.4-0.2c3.2,0,6.4,0.2,9.5,0.6c39.5,4.7,70.2,38.3,70.2,79.1C376.9,296.9,346.2,330.5,306.7,335.2z"/>
	<path style="display:inline;fill:#F5BC1A;stroke:#F5BC1A;stroke-width:5;stroke-miterlimit:10;" d="M291.8,381.8
		c0,18.4-14.9,32.8-33.3,32.8H53.2c-18.4,0-33.3-14.9-33.3-32.8v-329C19.9,34.5,34.9,20,53.2,20h205.2c18.4,0,33.3,14.9,33.3,32.8
		V134h14.9V52.8c0-26.3-21.4-47.7-48.2-47.7H53.2C26.9,5.1,5,26.5,5,52.8v329c0,26.3,21.4,47.7,48.2,47.7h205.2
		c26.3,0,48.2-21.4,48.2-47.7V377h-14.9V381.8z"/>
	<polygon style="display:inline;fill:#F5BC1A;stroke:#F5BC1A;stroke-miterlimit:10;" points="326.1,254 305.3,273.1 305.3,213.5 
		289,213.5 289,271.5 269.9,254 258.9,266.1 294.4,298.7 297.7,302.3 298,302 298.3,302.3 301.6,298.7 337.2,266.1 	"/>
</g>
</svg>
